<svg xmlns="http://www.w3.org/2000/svg" viewBox="0 0 232.42 79.43"><defs><style>.cls-1{fill:#0076c0;}.cls-2{fill:#dd1f26;}.cls-3{fill:#fff;}</style></defs><g id="Layer_2" data-name="Layer 2"><g id="Layer_1-2" data-name="Layer 1"><rect x="0.01" y="72.18" width="28.34" height="6.74"/><path d="M160,28.44h-5.8V25.81H152V41h2.36V46.5H140.21V41h2.36V25.81h-2.15v2.63h-5.8V20.28H160Z"/><path d="M163.71,43.74q-3.35-3.24-3.35-10.35T163.71,23q3.36-3.24,9.53-3.23T182.76,23q3.36,3.24,3.36,10.35t-3.36,10.35Q179.42,47,173.24,47T163.71,43.74ZM175,40.37a2.69,2.69,0,0,0,.57-1.89V28.3a2.7,2.7,0,0,0-.57-1.89,2.77,2.77,0,0,0-3.44,0A2.7,2.7,0,0,0,171,28.3V38.48a2.69,2.69,0,0,0,.57,1.91,2.77,2.77,0,0,0,3.44,0Z"/><path d="M186.69,46.5V41h1.68V25.81h-1.68V20.28h14.23v5.53h-3.11V41h3V37.87h6.71V46.5Z"/><path d="M208.7,46.5V41h1.69V25.81H208.7V20.28h14.23v5.53h-3.1V41h3V37.87h6.71V46.5Z"/><path class="cls-1" d="M15.92,5.12H12.28V3.47H10.93V13h1.48v3.47H3.51V13H5V3.47H3.64V5.12H0V0H15.92Z"/><path class="cls-1" d="M33.58,3.47h-1V13h1v3.47h-8V13h1V9.51h-3V13h1v3.47h-8V13H17.7V3.47H16.64V0h8V3.47h-1V6.69h3V3.47h-1V0h8Z"/><path class="cls-1" d="M34.43,16.47V13h1.06V3.47H34.43V0H48.72V6.39H44V3.47H41.42V6.82h1.86V9.23H41.42V13H44V9.66h4.74v6.81Z"/><path d="M0,41H1.7V25.84H0V20.28H13.7a12.67,12.67,0,0,1,9,3.08Q26,26.45,26,33.39t-3.32,10q-3.33,3.09-8.95,3.08H0Zm13.08,0a2.26,2.26,0,0,0,1.72-.61,2.69,2.69,0,0,0,.57-1.89V28.3c0-1.66-.76-2.49-2.29-2.49H11.14V41Z"/><path d="M26,46.5V41h1.68V25.81H26V20.28H48.72V30.46H41.17V25.81H37.09v5.32h3V35h-3v6h4.08V35.65h7.55V46.5Z"/><path d="M74.75,41H76.1V46.5H62.88V41h2l-.53-2.7H59.78L59.24,41h2V46.5H49.73V41h1.35l5.7-20.7H69.05ZM60.52,34.71h3.1L62.24,28H61.9Z"/><path d="M97.76,28.44H92V25.81H89.8V41h2.36V46.5H78V41h2.36V25.81H78.2v2.63H72.41V20.28H97.76Z"/><path d="M125.87,25.81h-1.68V41h1.68V46.5H113.13V41h1.62V35.41H110V41h1.62V46.5H98.9V41h1.69V25.81H98.9V20.28h12.75v5.53H110v5.12h4.72V25.81h-1.62V20.28h12.74Z"/><path d="M2.31,66.43Q0,64.21,0,59.33t2.3-7.11A9.06,9.06,0,0,1,8.85,50a9.06,9.06,0,0,1,6.54,2.22q2.3,2.22,2.3,7.11t-2.3,7.1a9.06,9.06,0,0,1-6.54,2.22A9.06,9.06,0,0,1,2.31,66.43ZM10,64.11a1.81,1.81,0,0,0,.39-1.29v-7A1.83,1.83,0,0,0,10,54.54a1.54,1.54,0,0,0-1.18-.42,1.54,1.54,0,0,0-1.18.42,1.83,1.83,0,0,0-.39,1.29v7a1.85,1.85,0,0,0,.39,1.31,1.58,1.58,0,0,0,1.18.4A1.54,1.54,0,0,0,10,64.11Z"/><path d="M17.69,68.33v-3.8h1.15V54.12H17.69v-3.8H31.52v6H27.43v-2.2H25.32V58h3.5V60.6h-3.5v3.93h3v3.8Z"/><path d="M36.55,72.89h1.83V56.35H36.55v-6H52.68c3.16,0,5.57.69,7.24,2s2.5,3.56,2.5,6.6-.83,5.24-2.5,6.6-4.08,2-7.24,2h-4v5.29H52.2v6H36.55ZM49.92,62.38c1.42,0,2.14-.78,2.14-2.35V58.71a2.54,2.54,0,0,0-.54-1.79,2.08,2.08,0,0,0-1.6-.57H48.67v6Z"/><path d="M66.66,75.91Q63,72.37,63,64.62t3.65-11.28q3.66-3.53,10.39-3.53t10.38,3.53q3.66,3.52,3.66,11.28T87.43,75.91q-3.66,3.53-10.38,3.52T66.66,75.91Zm12.26-3.68a2.9,2.9,0,0,0,.63-2.06V59.07A2.92,2.92,0,0,0,78.92,57a3,3,0,0,0-3.75,0,3,3,0,0,0-.62,2.06v11.1a2.94,2.94,0,0,0,.62,2.08,2.5,2.5,0,0,0,1.88.64A2.46,2.46,0,0,0,78.92,72.23Z"/><path d="M91.1,78.92v-6h1.84V56.35H91.1v-6h15.51v6h-3.38V72.89h3.31V69.51h7.31v9.41Z"/><path d="M115.1,78.92v-6h1.84V56.35H115.1v-6h14v6h-1.84V72.89h1.84v6Z"/><path d="M132.84,75.91q-3.76-3.54-3.77-11.29,0-14.81,14.41-14.81a23.51,23.51,0,0,1,6.48.85,15,15,0,0,1,4.47,1.87v9.19h-8.82V59.07A2.92,2.92,0,0,0,145,57a3,3,0,0,0-3.74,0,2.92,2.92,0,0,0-.63,2.06v11.1a2.9,2.9,0,0,0,.63,2.06,3,3,0,0,0,3.74,0,2.9,2.9,0,0,0,.63-2.06v-3h8.82v9.51A15.51,15.51,0,0,1,150,78.59a23.38,23.38,0,0,1-6.41.84Q136.6,79.43,132.84,75.91Z"/><path d="M155.83,78.92v-6h1.83V56.35h-1.83v-6h14v6H168V72.89h1.83v6Z"/><path d="M192.43,50.32h12.06v6h-1.84V78.92H192.32L181.55,62.34V72.89h1.77v6H171.26v-6h1.84V56.35h-1.84v-6h13.27l9.67,14.74V56.35h-1.77Z"/><path d="M232.42,69.73h-1.84v7.35a18.34,18.34,0,0,1-4.72,1.64,29.71,29.71,0,0,1-6.71.71q-6.87,0-10.77-3.62t-3.89-11.19q0-7.76,3.87-11.28t11.09-3.53a27.94,27.94,0,0,1,6.54.74,17.33,17.33,0,0,1,4.59,1.65V61h-9.19V59.26a3.2,3.2,0,0,0-.64-2.23,3.4,3.4,0,0,0-4.08,0,3.2,3.2,0,0,0-.64,2.23V70a3.15,3.15,0,0,0,.64,2.22,3.4,3.4,0,0,0,4.08,0,3.15,3.15,0,0,0,.64-2.22v-.26h-2V64.25h13Z"/><rect class="cls-2" x="50.02" y="9.41" width="179.55" height="2.36"/><rect class="cls-3" x="50.02" y="7.05" width="179.55" height="2.36"/><rect class="cls-2" x="50.02" y="4.7" width="179.55" height="2.36"/><rect class="cls-2" x="50.02" width="179.55" height="2.36"/><rect class="cls-3" x="50.02" y="2.35" width="179.55" height="2.36"/><rect class="cls-2" x="50.02" y="14.12" width="179.55" height="2.36"/><rect class="cls-3" x="50.02" y="11.76" width="179.55" height="2.36"/></g></g></svg>